<svg width="51" height="56" viewBox="0 0 51 56" fill="none" xmlns="http://www.w3.org/2000/svg">
<g id="Frame" clip-path="url(#clip0_497_5570)">
<g id="Group">
<path id="Vector" d="M17.8846 25.948C15.9946 25.948 14.1619 25.948 12.2432 25.948C12.2432 24.2684 12.2432 22.6173 12.2432 20.8808C15.8801 20.8808 19.5742 20.8808 23.3257 20.8808C23.3257 29.1649 23.3257 37.4491 23.3257 45.8186C22.1229 45.7617 20.9202 45.904 19.6601 45.6478C18.6578 45.4201 17.6556 45.0785 16.6246 44.9931C15.9946 44.9646 15.4791 44.5376 14.8778 44.3383C13.3027 43.769 11.8136 42.9434 10.4391 41.947C9.29358 41.1214 8.14811 40.2389 7.14581 39.2141C5.02669 37.0505 3.50893 34.4599 2.163 31.7555C1.81935 29.962 0.960248 28.2824 1.01752 26.4035C0.473421 25.0086 0.759789 23.4998 0.759789 22.0195C0.788426 20.6245 1.18934 19.2865 1.47571 17.9201C1.87663 15.9843 2.73573 14.2477 3.62348 12.5397C4.19622 11.4294 4.85486 10.3476 5.77124 9.43665C6.28671 8.92423 6.63035 8.241 7.17445 7.72858C8.72084 6.30518 10.4104 5.10953 12.2145 3.99928C13.4746 3.23065 14.8205 2.66129 16.1951 2.23427C17.3119 1.89266 18.486 1.72185 19.5742 1.4087C20.8629 1.06709 22.0656 1.38023 23.3257 1.12402C23.3257 2.9175 23.3257 4.56864 23.3257 6.27671C18.3715 6.36212 14.1332 8.07019 10.6968 11.6571C8.31993 14.1339 6.7449 17.0945 6.22943 20.4537C5.54215 25.0655 5.82852 25.094 6.77354 28.6525C7.48946 31.3285 8.9213 33.6628 10.8972 35.6271C12.8732 37.5914 15.1355 39.0433 17.856 39.9258C17.8846 35.2855 17.8846 30.7022 17.8846 25.948Z" fill="#4B90CD"/>
<path id="Vector_2" d="M31.4299 6.16298C31.4299 11.031 31.4299 15.899 31.4299 20.824C35.21 20.824 38.9614 20.824 42.7987 20.824C42.7987 22.5605 42.7987 24.2401 42.7987 25.9482C39.0187 25.9482 35.2672 25.9482 31.4299 25.9482C31.4299 32.5243 31.4299 39.0149 31.4299 45.4487C31.2294 45.648 31.1435 45.7334 31.0003 45.8757C29.454 45.8757 27.9076 45.8757 26.3039 45.8757C26.3039 30.9301 26.3039 16.0129 26.3039 1.01029C26.5903 0.782543 26.9625 0.924883 27.3348 0.924883C28.4803 0.896415 29.6258 0.981819 30.7712 0.896415C32.1458 0.782543 33.4918 1.09569 34.7804 1.2665C36.4127 1.49424 38.1023 1.83586 39.6487 2.60449C41.1092 3.34465 42.5983 4.02788 43.9728 4.93886C45.7197 6.07757 47.1802 7.50097 48.5548 9.00977C49.0989 9.60759 49.7002 10.2339 49.9866 11.1164C47.7529 11.1164 45.5192 11.1164 43.2569 11.1164C41.911 9.66453 40.336 8.46888 38.4173 7.72871C36.6704 7.04548 34.9236 6.24838 33.0049 6.36225C32.4036 6.39072 32.0599 5.76443 31.4299 6.16298Z" fill="#080808"/>
<path id="Vector_3" d="M5.59942 53.0495C5.59942 53.4765 5.59942 53.8466 5.59942 54.2736C5.51351 54.5583 4.96941 54.6437 5.05532 55.1561C4.36803 55.3269 3.85257 56.0102 3.07937 55.8394C2.16299 55.6116 1.3898 55.1561 0.788421 54.1882C0.645237 53.6189 0.215684 52.8787 0.731148 52.0531C1.1607 51.3984 1.53298 50.7436 2.56391 50.4589C3.53756 50.4304 4.76895 50.3166 5.39896 51.7115C5.28441 51.7969 5.1985 51.8254 5.02668 51.9392C4.71167 51.6546 4.36803 51.3414 4.05303 51.0283C3.5662 51.0283 3.10801 51.0283 2.82164 51.0283C1.13206 51.5976 1.33252 52.8502 1.3898 54.0459C1.7048 54.359 1.99117 54.6437 2.36345 55.0138C3.10801 54.9568 3.93848 55.1846 4.71167 54.6437C4.68304 54.3021 5.16986 54.1313 5.02668 53.6189C4.59713 53.6189 4.13894 53.6189 3.68075 53.6189C3.68075 53.3911 3.68075 53.2488 3.68075 53.078C4.25348 53.0495 4.85486 53.0495 5.59942 53.0495Z" fill="#080808"/>
<path id="Vector_4" d="M15.1641 55.5546C14.5341 55.4407 13.99 56.1809 13.2455 55.6685C12.7014 55.2984 11.9854 55.1276 11.6132 54.5297C11.155 53.7611 11.3554 52.9071 11.3268 52.0815C11.47 51.7399 11.9854 51.5691 11.9568 51.1421C12.3864 50.9428 12.7873 50.7435 13.3027 50.4873C13.7037 50.4873 14.2764 50.4873 14.8778 50.4873C15.3073 50.7435 15.8514 50.9143 16.1378 51.4267C16.3669 51.8538 16.3955 52.3662 16.6819 52.7647C17.1115 53.3626 16.2523 53.7611 16.5101 54.3305C16.0519 54.7006 15.6223 55.1276 15.1641 55.5546ZM11.8995 52.5939C11.8995 52.5655 11.9282 52.8501 11.8995 53.1064C11.8423 53.818 12.1859 54.3305 12.6727 54.7575C13.4459 55.4407 14.305 55.4407 15.1069 54.786C15.3932 54.5297 15.651 54.2735 15.9087 53.9889C15.9087 53.3056 15.9087 52.6509 15.9087 52.0246C15.5651 51.5406 15.1069 51.2559 14.4769 50.9997C13.5032 50.9713 12.3864 50.9143 11.8995 52.5939Z" fill="#080808"/>
<path id="Vector_5" d="M21.092 52.8786C21.3497 53.1348 21.6074 53.391 21.8938 53.6757C22.0943 54.4159 21.8365 54.9852 21.2638 55.5261C20.5192 55.5261 19.7174 55.5261 18.8583 55.5261C18.8583 53.875 18.8583 52.1954 18.8583 50.4873C19.3451 50.4873 19.8606 50.4873 20.3761 50.4873C20.6624 50.6581 20.9774 50.8289 21.3784 51.0567C21.2924 51.6545 21.5788 52.3092 21.092 52.8786ZM19.4024 53.3341C19.4024 53.9035 19.4024 54.4443 19.4024 54.9852C19.9465 54.9852 20.462 54.9852 20.9488 54.9852C21.3211 54.7575 21.4356 54.4159 21.4356 54.3305C21.0633 53.8181 20.8343 53.5334 20.6911 53.3341C20.1756 53.3341 19.8033 53.3341 19.4024 53.3341ZM19.4024 51.0567C19.4024 51.6545 19.4024 52.1669 19.4024 52.6793C19.7747 52.6793 20.0897 52.6793 20.3761 52.6793C20.5192 52.537 20.6624 52.3947 20.8056 52.2523C20.6911 51.9676 20.8915 51.626 20.6911 51.3413C20.3761 50.9143 19.8892 50.9997 19.4024 51.0567Z" fill="#080808"/>
<path id="Vector_6" d="M49.9866 51.4837C50.0439 52.3947 49.7002 53.1063 48.7266 53.5049C49.3279 54.1597 49.6143 54.9283 50.4734 55.5546C48.8411 55.5831 48.7552 54.2735 48.0393 53.5618C48.0393 54.2166 48.0393 54.8429 48.0393 55.3838C47.7529 55.6685 47.4952 55.5261 47.2088 55.5831C47.2088 53.9035 47.2088 52.2238 47.2088 50.4873C47.7815 50.4873 48.4115 50.4873 48.9843 50.4873C49.3279 50.8005 49.6429 51.1421 49.9866 51.4837ZM49.4138 51.7684C49.0416 51.2559 48.5834 50.7435 47.7243 51.1136C47.7243 51.626 47.7243 52.1384 47.7243 52.6224C47.9247 52.7647 48.0106 53.0494 48.3256 53.0209C48.7552 52.6793 49.5284 52.7078 49.4138 51.7684Z" fill="#080808"/>
<path id="Vector_7" d="M42.2833 55.4411C41.3383 55.4696 41.3669 54.701 41.0232 54.1885C40.3932 54.1885 39.6773 54.1885 38.9614 54.1885C38.7609 54.5586 38.5032 54.9856 38.5032 55.4981C38.2455 55.5835 37.9591 55.6689 37.6727 55.4127C38.4746 53.8184 39.2191 52.1388 39.935 50.3169C40.7082 51.0855 40.7082 52.1388 41.2237 52.9075C41.7392 53.6761 41.6819 54.6725 42.2833 55.4411ZM40.9946 53.5053C40.5364 52.9075 40.5078 52.1958 39.8491 51.7403C39.62 52.3951 39.3909 52.9359 39.1905 53.5053C39.7346 53.5053 40.2787 53.5053 40.9946 53.5053Z" fill="#080808"/>
<path id="Vector_8" d="M25.8743 50.2598C26.7048 52.1386 27.4207 53.8183 28.1653 55.4979C28.0221 55.6687 27.7644 55.4979 27.5353 55.5548C27.3348 55.1278 27.0198 54.7292 27.0484 54.1599C26.3325 54.1599 25.6452 54.1599 24.9007 54.1599C24.5284 54.473 24.3566 54.9854 24.1561 55.4979C24.0416 55.4979 23.8984 55.4979 23.6407 55.4979C24.2134 53.7613 24.9866 52.1386 25.8743 50.2598ZM25.7598 51.5124C25.5021 52.224 25.273 52.8503 25.0725 53.5051C25.7311 53.5051 26.2752 53.5051 26.7907 53.5051C26.4471 52.8219 26.1034 52.1956 25.7598 51.5124Z" fill="#080808"/>
<path id="Vector_9" d="M34.5227 55.5261C34.2936 55.5261 34.1504 55.5261 34.0072 55.5261C34.0072 53.8465 34.0072 52.1954 34.0072 50.4873C34.6659 50.4873 35.3531 50.4873 36.155 50.4873C36.2409 50.5442 36.3841 50.6866 36.7277 50.9428C35.8972 50.9428 35.2672 50.9428 34.6372 50.9428C34.4654 51.4267 34.5513 51.8822 34.5513 52.3662C35.0954 52.3662 35.6109 52.3662 36.0404 52.3662C36.2695 52.5085 36.2695 52.6509 36.2409 52.8501C35.84 53.1064 35.3531 52.8786 34.9236 52.9925C34.809 53.1064 34.7231 53.1918 34.5227 53.391C34.5227 54.0743 34.5227 54.786 34.5227 55.5261Z" fill="#080808"/>
<path id="Vector_10" d="M30.8285 50.829C30.7712 52.11 30.9144 53.3911 30.7426 54.6437C30.7426 54.7291 30.6281 54.786 30.5421 54.8714C30.9717 55.1561 31.4585 54.8999 31.8881 55.0707C32.0026 55.1846 32.1172 55.3269 32.3176 55.5262C31.4872 55.5262 30.7712 55.5262 29.998 55.5262C29.998 53.8466 29.998 52.1954 29.998 50.5728C30.4276 50.2311 30.5421 50.7151 30.8285 50.829Z" fill="#080808"/>
<path id="Vector_11" d="M8.43446 55.0141C8.97856 55.0141 9.40811 55.0141 9.75176 55.0141C9.98085 55.1565 9.89494 55.3273 9.89494 55.5265C9.26493 55.5265 8.60628 55.5265 7.94763 55.5265C7.94763 53.9039 7.94763 52.2527 7.94763 50.5731C8.03354 50.4593 8.20536 50.4308 8.43446 50.5447C8.43446 51.9396 8.43446 53.3914 8.43446 55.0141Z" fill="#080808"/>
<path id="Vector_12" d="M44.8033 55.4978C44.6315 55.5548 44.4883 55.6117 44.3451 55.4694C44.3451 53.8467 44.3451 52.1671 44.3451 50.5159C44.5169 50.459 44.6601 50.4021 44.8033 50.5444C44.8033 52.1671 44.8033 53.8467 44.8033 55.4978Z" fill="#080808"/>
</g>
</g>
<defs>
<clipPath id="clip0_497_5570">
<rect width="50" height="55" fill="white" transform="translate(0.473419 0.868164)"/>
</clipPath>
</defs>
</svg>
