<svg width="106" height="35" viewBox="0 0 106 35" fill="none" xmlns="http://www.w3.org/2000/svg">
<g clip-path="url(#clip0_3035_223017)">
<g clip-path="url(#clip1_3035_223017)">
<path d="M1.09715 20.8771C2.40971 18.9645 3.74083 17.5888 6.22913 17.9838C7.63909 18.2069 9.11167 18.0233 10.6167 18.0233C9.45488 16.1409 9.45488 16.1409 0.91163 14.9511C1.54472 12.2182 2.92685 10.0918 5.89751 8.55797C3.69445 8.55797 1.92736 8.55797 0.0976562 8.55797C0.0976562 7.59121 0.0976562 6.84755 0.0976562 5.76925C18.0329 5.76925 36.003 5.76925 54.0217 5.76925C54.4762 4.87918 54.0101 3.89849 54.3533 2.88758C55.2763 2.67145 56.2549 2.74814 57.2961 2.84807C57.3425 3.84039 57.3866 4.76764 57.433 5.75298C60.0071 5.75298 62.4652 5.75298 64.9187 5.75298C67.2262 1.52343 70.2965 0.010552 74.1739 1.18181C74.9856 1.42583 75.8807 1.67913 75.7045 2.75744C75.5422 3.74511 74.6192 3.68468 73.8771 3.68236C72.9309 3.68004 71.9848 3.57546 71.0386 3.53131C69.4431 3.45694 68.2558 4.10067 67.3259 5.8134C80.2382 5.86221 92.9371 5.51827 105.75 5.83897C105.75 6.67093 105.75 7.46107 105.75 8.40691C93.169 8.40691 80.5211 8.40691 67.8824 8.40691C67.4488 9.45965 67.6598 10.3939 67.6876 11.4745C70.0275 11.1375 72.3257 10.9307 74.6145 11.4164C76.864 11.8951 77.351 12.4784 77.3417 14.7652C77.3371 15.9062 77.453 17.0868 77.2026 18.179C76.748 20.1637 75.4262 21.0654 73.4017 21.0723C72.7106 21.0747 72.0173 21.0723 71.2357 21.0723C71.3679 19.9847 72.3396 19.4456 72.8034 18.5997C73.4666 17.3935 73.6313 16.0364 73.0585 14.9557C72.4138 13.7403 70.9412 13.7055 69.6472 13.8496C68.272 14.0029 67.516 14.6513 67.5972 16.2293C67.7132 18.5114 67.6274 20.8028 67.6274 23.1615C66.6325 23.5055 65.6678 23.366 64.601 23.2731C64.601 18.3603 64.601 13.5428 64.601 8.60677C62.1382 8.60677 59.7775 8.60677 57.4167 8.60677C57.3889 8.79733 57.3611 8.99022 57.3332 9.18078C59.1398 10.2986 61.3591 9.15057 63.2514 9.79197C62.4049 11.6999 62.4049 11.6999 57.3843 12.0113C57.3843 13.9262 57.2521 15.8783 57.426 17.8049C57.5628 19.3224 59.4783 19.6222 61.1063 18.423C61.86 17.87 62.4791 17.045 63.5691 17.6887C62.4722 21.0514 60.4291 22.5178 57.2776 22.2134C55.0931 22.0042 54.2235 21.0189 54.2211 18.7391C54.2188 15.3833 54.2211 12.0276 54.2211 8.57888C40.692 8.57888 27.2765 8.57888 13.8401 8.57888C13.8888 9.31789 15.0066 9.03437 15.0205 9.98486C14.6495 10.7448 13.759 11.2863 13.1027 12.0346C12.5763 12.6365 12.0012 12.4552 11.3866 12.1624C10.3593 11.6744 9.30878 11.2421 8.27914 10.7587C6.8112 10.0685 5.89055 10.5914 5.22963 12.2274C6.72772 12.4017 8.16087 12.1786 9.543 12.5133C10.4752 12.7387 11.382 12.9897 12.2052 13.4777C14.3666 14.7536 14.6843 16.3664 13.1676 18.3603C11.811 20.1428 10.2851 21.4163 7.762 21.1165C5.76301 20.8794 3.71068 21.0654 1.68386 21.0561C1.57023 21.063 1.4566 20.9933 1.09715 20.8771Z" fill="#4573C5"/>
<path d="M23.7461 18.9154C23.7461 19.6614 23.7461 20.2819 23.7461 21.0581C22.0069 21.0581 20.307 21.1673 18.6257 21.0279C16.7496 20.8745 15.7316 19.6219 15.7177 17.7139C15.6968 15.1135 15.713 12.513 15.713 9.77539C19.6739 9.77539 23.607 9.77539 27.6003 9.77539C27.6003 13.8609 27.6003 17.9091 27.6003 22.0434C26.6681 22.3757 25.6987 22.2107 24.567 22.1526C24.567 18.862 24.567 15.6619 24.567 12.3852C22.7837 12.3852 21.1604 12.3852 19.5417 12.3852C18.4356 17.0539 19.3353 18.4901 23.7461 18.9154Z" fill="#4573C5"/>
<path d="M36.6772 21.0768C34.989 21.0768 33.477 21.1302 31.9696 21.0628C29.7828 20.9652 28.6581 19.7521 28.6465 17.5583C28.6326 14.9741 28.6442 12.3876 28.6442 9.71973C32.6677 9.71973 36.5567 9.71973 40.5152 9.71973C40.5152 13.8842 40.5152 17.9697 40.5152 22.1388C39.5227 22.1388 38.602 22.1388 37.5237 22.1388C37.5237 18.8853 37.5237 15.6829 37.5237 12.3922C35.745 12.3922 34.1194 12.3922 32.4937 12.3922C31.3018 16.9239 32.3013 18.5367 36.5636 18.8783C36.886 19.5244 36.6888 20.2076 36.6772 21.0768Z" fill="#4573C5"/>
<path d="M82.5142 12.8779C83.5694 13.7517 84.8611 13.51 86.0554 14.091C84.9747 15.3366 83.9775 16.4916 82.4261 17.0098C83.9381 17.9696 85.151 18.1695 86.5772 17.9046C88.0034 17.6396 89.0284 16.4846 90.5102 16.1105C88.9889 20.3517 83.4952 22.4734 79.7755 20.3912C78.1939 19.5057 78.0525 18.6017 79.2839 17.2724C79.5807 16.9517 79.8682 16.6217 80.1674 16.2871C77.6652 14.7161 77.6026 14.1142 79.6804 11.9762C82.498 9.07594 86.925 8.75059 90.494 11.1814C88.7779 13.7819 88.5112 13.8679 85.7701 13.1405C84.7776 12.8779 83.7712 12.434 82.5142 12.8779Z" fill="#4573C5"/>
<path d="M95.9537 17.0721C99.0195 18.8731 101.559 17.7739 104.103 15.8241C103.535 18.8499 101.352 20.6532 98.0246 21.039C96.6448 21.1994 95.2464 21.1436 93.9223 20.6114C91.8815 19.7911 91.638 18.6686 93.1454 17.093C93.3611 16.8676 93.5767 16.6375 93.7924 16.4051C91.3528 14.4065 91.9998 11.6643 95.4366 10.2629C98.4328 9.04288 101.445 9.3845 104.295 11.0949C102.282 13.8674 102.285 13.8581 99.2189 13.0703C98.3075 12.8355 97.3985 12.5102 96.2459 12.7984C97.2176 13.7744 98.4838 13.5164 99.692 14.0207C98.7412 15.3686 97.6489 16.4678 95.9537 17.0721Z" fill="#4573C5"/>
<path d="M50.1374 16.8171C49.386 13.0663 48.3448 12.3854 45.2071 13.7007C45.2071 16.0665 45.2071 18.4717 45.2071 20.9793C43.941 20.9793 42.7722 20.9793 41.5361 20.9793C41.5361 17.3074 41.5361 13.71 41.5361 9.98242C42.684 9.98242 43.7879 9.98242 44.9242 9.98242C45.4321 10.3403 44.9868 11.0561 45.3486 11.5023C49.757 9.48975 51.7097 9.5432 52.7555 11.6673C53.7179 13.624 52.8158 15.3995 50.1374 16.8171Z" fill="#4573C5"/>
<path d="M76.9959 29.2335C76.6017 30.3559 75.9593 31.2088 74.4543 31.3576C75.3077 31.992 76.9751 31.8479 76.1333 33.1795C75.6092 34.0068 74.4613 34.381 73.3087 33.7373C72.9145 33.5165 72.5643 33.2237 72.7916 32.9541C73.6079 31.992 73.6171 30.9834 73.5568 29.7796C73.5104 28.8384 74.5772 28.613 75.4422 28.7292C75.9732 28.8012 76.4788 29.0592 76.9959 29.2335Z" fill="#4573C5"/>
<path d="M79.0119 30.5454C78.3069 30.9335 78.5411 32.0025 77.4767 32.451C77.3445 30.4454 78.9145 28.8117 78.3533 26.8643C78.7452 26.8643 79.107 26.8643 79.4873 26.8643C79.8676 27.5963 79.0188 28.1703 79.3064 28.9628C79.7656 29.058 80.2641 28.405 80.7859 28.8884C81.3379 29.8319 80.2525 30.7336 80.6352 31.7445C80.7256 31.9839 80.1923 32.3604 79.7702 32.272C79.0281 32.1163 79.5963 31.5423 79.4687 31.1844C79.6125 30.7429 80.0137 30.3548 79.7493 29.7645C79.267 29.8203 78.9423 29.9806 79.0119 30.5454Z" fill="#4573C5"/>
<path d="M39.4662 30.4996C38.7473 30.9017 39.0766 32.145 37.9751 32.3425C37.5971 31.076 39.0604 30.0395 38.0586 28.7032C39.2552 28.7334 40.1596 29.1494 41.0037 28.6475C41.9453 29.7118 40.6837 30.7227 41.0895 31.7406C41.1823 31.9707 40.6466 32.3541 40.2246 32.2658C39.4825 32.1101 40.0506 31.5361 39.9231 31.1782C40.0692 30.739 40.4611 30.3509 40.2315 29.8117C39.7167 29.7769 39.3735 29.8954 39.4662 30.4996Z" fill="#4573C5"/>
<path d="M46.3691 31.9078C46.506 30.1254 47.793 28.7171 47.4266 26.9277C47.8301 26.6906 48.2522 26.7975 48.6882 26.8719C48.9618 27.5784 48.3426 28.0153 48.1687 28.5916C48.7948 28.8821 49.8129 28.3569 50.0169 29.4631C50.163 30.2578 49.959 30.9922 49.3653 31.55C48.5096 32.3587 47.5542 32.6724 46.3691 31.9078ZM47.2828 31.5151C48.9409 31.4245 49.3514 30.7459 48.6186 29.3352C47.6701 29.7536 47.6307 30.718 47.2828 31.5151Z" fill="#4573C5"/>
<path d="M23.3867 32.197C22.5658 32.3922 21.9095 32.4689 21.2416 32.1645C21.1836 31.6509 22.2295 31.6462 21.7077 30.9537C21.1373 30.4866 20.6201 31.221 19.7227 31.2326C20.8845 29.729 21.877 28.4485 23.127 26.8311C23.4238 28.9063 22.3571 30.5935 23.3867 32.197Z" fill="#4573C5"/>
<path d="M64.8575 30.0817C63.6539 30.3606 63.9159 31.8967 62.8446 32.4707C62.4155 31.1159 63.8348 30.012 62.986 28.7432C64.0249 29.3985 65.6529 27.9414 66.1097 29.4868C66.2697 30.0283 66.5086 31.8921 64.985 32.3964C64.3287 31.5133 65.2911 30.8161 64.8575 30.0817Z" fill="#4573C5"/>
<path d="M56.1432 31.0147C56.1942 31.8792 55.749 32.3184 54.8028 32.3393C53.9935 32.3579 53.3766 32.0116 53.43 31.1495C53.5111 29.8109 54.2115 28.7093 55.6122 28.7512C57.9474 28.8185 56.0342 30.2268 56.1432 31.0147ZM54.5338 31.6444C55.211 31.7978 55.538 31.6351 55.7258 31.0821C55.1739 30.8706 54.833 31.003 54.5338 31.6444Z" fill="#4573C5"/>
<path d="M45.7582 28.8853C45.0416 32.3619 45.0416 32.3619 42.129 32.0668C41.9063 29.4826 43.0334 28.4972 45.7582 28.8853ZM42.885 31.6229C44.0306 31.3115 44.8306 30.7515 44.5593 29.4105C42.878 29.371 43.3209 30.8212 42.885 31.6229Z" fill="#4573C5"/>
<path d="M61.2246 32.2687C60.6309 32.371 60.0118 32.4407 59.3926 32.2083C60.3457 30.7256 61.2895 29.2569 60.7909 27.2955C61.3452 27.0306 62.0177 27.1863 62.8572 27.2653C61.6629 28.7224 61.1434 30.3097 61.2246 32.2687Z" fill="#4573C5"/>
<path d="M66.7891 32.0838C66.8818 31.7004 66.9398 31.461 66.9955 31.2263C67.6216 30.7127 67.6865 32.193 68.3869 31.4912C68.744 30.6151 67.1207 30.2595 67.6262 29.3044C68.155 28.3051 69.006 28.8164 70.0055 28.8838C69.3655 29.4717 68.3869 29.6414 69.1869 30.8149C69.9035 31.87 68.9573 32.4487 66.7891 32.0838Z" fill="#4573C5"/>
<path d="M34.967 31.7333C35.8088 31.0803 36.7109 30.4459 35.6743 29.1468C36.2286 29.1445 36.9591 28.7215 37.0588 29.7487C37.1701 30.8874 36.6692 31.7008 35.6279 32.1516C34.9508 32.4445 34.1739 32.549 33.7843 31.8077C33.302 30.8897 33.5455 30.0276 34.4128 29.3769C35.4007 30.1043 33.7472 30.9804 34.967 31.7333Z" fill="#4573C5"/>
<path d="M50.9482 32.0936C51.3402 30.3344 51.7251 28.5752 52.1565 26.8253C52.168 26.7834 52.7153 26.8741 53.098 26.9112C52.611 28.8169 52.1518 30.6179 51.6926 32.4166C51.4445 32.3097 51.1964 32.2005 50.9482 32.0936Z" fill="#4573C5"/>
<path d="M28.3516 31.9438C29.0519 30.5797 28.4188 28.681 30.1905 27.626C30.8491 29.2643 29.0334 30.5193 29.5227 32.0949C29.5505 32.1809 28.9104 32.483 28.3516 31.9438Z" fill="#4573C5"/>
<path d="M81.8828 32.1823C82.4533 30.616 82.015 28.8033 83.7682 27.5693C83.5734 28.2386 84.4036 28.729 83.7821 29.2797C83.1954 29.8003 83.047 30.4998 83.033 31.1459C83.0214 31.9267 83.0841 32.503 81.8828 32.1823Z" fill="#4573C5"/>
<path d="M84.1973 31.7011C84.617 30.8691 85.1898 32.1008 85.693 31.5268C85.9806 30.6251 84.3016 30.1092 85.0599 29.0681C85.4913 28.4755 86.0618 28.7358 86.6137 28.8218C85.9296 32.5493 85.9296 32.5493 84.1973 31.7011Z" fill="#4573C5"/>
<path d="M32.8953 28.8666C31.9097 32.1201 31.9097 32.1201 31.105 32.2596C30.6737 31.0836 32.2414 30.0751 31.3694 28.8875C31.875 28.604 32.3388 28.6528 32.8953 28.8666Z" fill="#4573C5"/>
<path d="M70.6561 28.6699C71.5466 28.7234 71.9733 28.7489 72.9636 28.8094C71.0991 29.6134 73.2047 32.0977 70.6724 32.3696C70.2063 31.038 71.9478 30.0503 70.6561 28.6699Z" fill="#4573C5"/>
<path d="M25.6433 29.1855C25.6294 30.48 24.4722 32.0022 26.8028 31.7698C26.0584 32.4228 25.1818 32.6924 24.6415 31.872C24.0663 30.9982 24.3748 30.0431 25.6433 29.1855Z" fill="#4573C5"/>
</g>
</g>
<defs>
<clipPath id="clip0_3035_223017">
<rect width="105.65" height="33.2601" fill="white" transform="translate(0.0996094 0.803711)"/>
</clipPath>
<clipPath id="clip1_3035_223017">
<rect width="105.65" height="33.2601" fill="white" transform="translate(0.0996094 0.803711)"/>
</clipPath>
</defs>
</svg>
