<svg width="120" height="29" viewBox="0 0 120 29" fill="none" xmlns="http://www.w3.org/2000/svg">
<g clip-path="url(#clip0_3035_223014)">
<g clip-path="url(#clip1_3035_223014)">
<path d="M21.1168 16.5981C21.1168 14.661 21.1168 12.8017 21.1168 10.9024C16.4848 10.9024 11.8733 10.9024 7.1965 10.9024C7.1965 16.8561 7.1965 22.8111 7.1965 28.8097C6.35927 28.8097 5.58626 28.8097 4.74418 28.8097C4.74418 22.8406 4.74418 16.8856 4.74418 10.8776C3.43443 10.8776 2.19131 10.8776 0.908203 10.8776C0.908203 10.1919 0.908203 9.55795 0.908203 8.87338C2.1695 8.87338 3.41504 8.87338 4.74418 8.87338C4.74418 8.04859 4.74782 7.27093 4.74297 6.4921C4.73934 5.78513 4.75266 5.08171 4.95622 4.39242C5.62624 2.12072 7.27283 0.892963 9.54219 0.334464C14.2239 -0.819061 20.2408 1.53276 22.8046 5.55537C22.2339 5.9713 21.6572 6.39077 21.0465 6.83497C20.3583 5.94891 19.6265 5.11941 18.725 4.4478C16.2449 2.59674 13.4618 1.84147 10.3746 2.37169C8.31967 2.72399 7.22558 4.04012 7.17469 6.06321C7.15167 6.96458 7.17105 7.86596 7.17105 8.84274C13.9246 8.84274 20.6515 8.84274 27.4099 8.84274C27.4099 9.53792 27.4099 10.1577 27.4099 10.8505C26.1523 10.8505 24.8946 10.8505 23.5691 10.8505C23.5691 16.8785 23.5691 22.8347 23.5691 28.8203C22.7428 28.8203 21.9843 28.8203 21.1725 28.8203C21.1725 25.4823 21.1725 22.1536 21.1725 18.7814C19.0352 18.7814 16.9512 18.7814 14.803 18.7814C14.803 19.5638 14.7849 20.3438 14.8115 21.1215C14.8236 21.4702 14.7158 21.6423 14.3644 21.7613C13.1661 22.1654 12.965 22.1183 12.1993 21.1227C11.9448 20.7916 11.7364 20.4322 11.5777 20.0504C10.8834 18.3855 11.2457 17.4582 12.8959 16.6547C13.0898 16.5604 13.2909 16.5993 13.4896 16.5981C15.7905 16.5946 18.0926 16.5958 20.3934 16.5958C20.6103 16.5981 20.8296 16.5981 21.1168 16.5981Z" fill="#1172B9"/>
<path d="M30.4768 12.8871C32.3984 12.7999 32.3972 12.8011 33.2284 14.4177C34.8204 17.5165 36.5361 20.5553 37.9925 23.7201C38.03 23.8026 38.0845 23.878 38.179 23.9475C37.8301 20.2854 38.0324 16.6234 37.9694 12.9154C38.5498 12.9154 39.0999 12.9154 39.6863 12.9154C39.6863 17.3987 39.6863 21.8855 39.6863 26.4207C39.1011 26.4207 38.5389 26.4101 37.9767 26.4242C37.6108 26.4336 37.5769 26.1379 37.4666 25.9293C36.2901 23.7001 35.1161 21.4696 33.9578 19.2309C33.318 17.9961 32.7098 16.7447 32.0192 15.5052C32.2918 19.1284 32.1258 22.748 32.1682 26.3948C31.5757 26.3948 31.0414 26.3948 30.4756 26.3948C30.4768 21.8949 30.4768 17.4093 30.4768 12.8871Z" fill="#131C44"/>
<path d="M92.008 20.7244C92.008 22.6344 92.008 24.4914 92.008 26.3837C91.395 26.3837 90.8219 26.3837 90.2148 26.3837C90.2148 21.9027 90.2148 17.417 90.2148 12.856C92.2879 12.949 94.3658 12.6545 96.4171 13.0669C98.2842 13.4427 99.2996 14.5727 99.4025 16.2741C99.5273 18.3267 98.6635 19.7253 96.8739 20.3627C96.7055 20.4228 96.5346 20.477 96.3299 20.5453C97.4906 22.4918 98.6368 24.4148 99.8314 26.4178C99.1445 26.4178 98.5641 26.4084 97.9849 26.4214C97.6808 26.4284 97.6384 26.1904 97.5367 26.0172C96.5758 24.3877 95.6126 22.7581 94.6724 21.118C94.5028 20.821 94.3186 20.6997 93.966 20.7162C93.342 20.7456 92.7156 20.7244 92.008 20.7244ZM92.025 19.307C92.8344 19.307 93.5795 19.3164 94.3247 19.3023C94.6457 19.2964 94.968 19.2528 95.2879 19.2092C96.7685 19.0077 97.5875 18.1228 97.5912 16.7289C97.5948 15.3421 96.8933 14.5692 95.42 14.3889C94.3004 14.2522 93.1748 14.3406 92.0262 14.3276C92.025 15.9984 92.025 17.6209 92.025 19.307Z" fill="#131C44"/>
<path d="M108.252 12.8781C108.938 12.8781 109.691 12.6755 110.197 12.9347C110.715 13.1998 110.71 14.0234 110.915 14.6078C112.23 18.3653 113.529 22.1287 114.831 25.8897C114.882 26.037 114.928 26.1867 115.004 26.4188C114.408 26.4188 113.856 26.4117 113.304 26.4211C113.019 26.4259 113.004 26.2267 112.945 26.0382C112.596 24.9365 112.225 23.8407 111.897 22.732C111.806 22.4256 111.669 22.3278 111.353 22.3302C109.96 22.3432 108.568 22.3491 107.177 22.3267C106.815 22.3208 106.699 22.4669 106.604 22.7697C106.227 23.9833 105.825 25.1899 105.433 26.3964C104.813 26.3964 104.233 26.3964 103.57 26.3964C105.141 21.8601 106.697 17.3662 108.252 12.8781ZM109.262 14.3557C108.58 16.5602 107.92 18.6952 107.252 20.8527C108.63 20.8527 109.934 20.8527 111.279 20.8527C110.609 18.6905 109.948 16.5626 109.262 14.3557Z" fill="#131C44"/>
<path d="M75.7458 26.3997C75.1412 26.3997 74.5596 26.3997 73.8848 26.3997C75.455 21.8634 77.0107 17.3718 78.558 12.9015C78.6161 12.8862 78.6343 12.8767 78.6537 12.8767C79.2958 12.8826 80.0567 12.687 80.5474 12.9557C81.02 13.2149 81.0297 14.022 81.2284 14.5923C82.5309 18.3333 83.8225 22.0778 85.1177 25.8212C85.1795 26.0015 85.2364 26.1829 85.2982 26.3738C85.2001 26.3938 85.1419 26.4127 85.0837 26.415C83.3996 26.4834 83.4008 26.4822 82.9053 24.9292C82.6799 24.2199 82.4303 23.5165 82.2328 22.8001C82.1395 22.4619 82.0062 22.3194 81.6197 22.3264C80.2482 22.3512 78.8766 22.3477 77.5051 22.3276C77.1561 22.3229 77.0204 22.4407 76.9223 22.7577C76.5491 23.9737 76.142 25.1814 75.7458 26.3997ZM79.5769 14.3578C78.896 16.5565 78.2357 18.6927 77.5657 20.8548C78.9408 20.8548 80.2458 20.8548 81.5955 20.8548C80.9243 18.695 80.2639 16.5682 79.5769 14.3578Z" fill="#131C44"/>
<path d="M45.6074 24.9619C46.7366 24.9619 47.838 24.9619 48.972 24.9619C48.972 21.4294 48.972 17.9429 48.972 14.3975C47.8683 14.3975 46.7499 14.3975 45.6025 14.3975C45.6025 13.8756 45.6025 13.4125 45.6025 12.9082C48.4753 12.9082 51.3492 12.9082 54.262 12.9082C54.262 13.3724 54.262 13.8343 54.262 14.3492C53.1582 14.3492 52.0374 14.3492 50.8719 14.3492C50.8719 17.9005 50.8719 21.3988 50.8719 24.9572C52.0011 24.9572 53.1206 24.9572 54.2692 24.9572C54.2692 25.4579 54.2692 25.901 54.2692 26.3817C51.3856 26.3817 48.5128 26.3817 45.605 26.3817C45.6074 25.9375 45.6074 25.4933 45.6074 24.9619Z" fill="#131C44"/>
<path d="M65.7005 26.401C65.0548 26.401 64.4962 26.401 63.888 26.401C63.888 22.4102 63.888 18.4383 63.888 14.4086C62.3407 14.4086 60.8395 14.4086 59.3008 14.4086C59.3008 13.8772 59.3008 13.4012 59.3008 12.8945C62.9405 12.8945 66.5644 12.8945 70.2296 12.8945C70.3665 13.3552 70.249 13.836 70.3071 14.3662C68.7526 14.3662 67.2514 14.3662 65.7005 14.3662C65.7005 18.3947 65.7005 22.3666 65.7005 26.401Z" fill="#131C44"/>
<path d="M119.626 6.97109C119.626 9.12614 117.984 10.7274 115.778 10.7274C113.543 10.7274 111.863 9.10493 111.868 6.94988C111.873 4.87377 113.552 3.30196 115.77 3.30078C117.994 3.2996 119.627 4.85256 119.626 6.97109ZM115.776 9.9144C117.373 9.92265 118.625 8.66544 118.65 7.03C118.675 5.35804 117.45 4.08787 115.802 4.07373C114.146 4.05959 112.864 5.30266 112.845 6.93928C112.825 8.58296 114.129 9.90616 115.776 9.9144Z" fill="#131C44"/>
<path d="M116.737 7.05076C117.457 7.53856 117.365 8.26791 117.588 8.88179C116.651 9.02436 116.651 9.02436 116.439 8.24552C116.238 7.50321 116.088 7.40659 115.165 7.45962C115.165 7.93564 115.165 8.41637 115.165 8.89828C114.852 8.96544 114.601 8.96073 114.32 8.90889C114.32 7.66935 114.32 6.44041 114.32 5.18202C115.036 5.01353 115.761 5.03592 116.478 5.11368C116.945 5.16435 117.328 5.39058 117.429 5.88663C117.538 6.41567 117.328 6.80096 116.737 7.05076ZM115.262 6.79979C115.698 6.82335 116.134 6.84338 116.424 6.47105C116.542 6.31787 116.529 6.08222 116.352 5.93376C116.017 5.65333 115.641 5.62387 115.23 5.7853C115.204 6.13524 115.165 6.46162 115.262 6.79979Z" fill="#131C44"/>
</g>
</g>
<defs>
<clipPath id="clip0_3035_223014">
<rect width="118.719" height="28.7804" fill="white" transform="translate(0.907227 0.0439453)"/>
</clipPath>
<clipPath id="clip1_3035_223014">
<rect width="118.719" height="28.7804" fill="white" transform="translate(0.907227 0.0439453)"/>
</clipPath>
</defs>
</svg>
