<svg width="156" height="29" viewBox="0 0 156 29" fill="none" xmlns="http://www.w3.org/2000/svg">
<g clip-path="url(#clip0_3035_223019)">
<g clip-path="url(#clip1_3035_223019)">
<path d="M0.441406 19.6661C0.619747 19.8143 0.635203 19.6288 0.654226 19.5341C1.19995 16.8847 2.74081 15.0881 5.05091 13.9253C4.88327 12.8334 4.82739 11.7465 5.07706 10.6608C5.78805 7.57315 8.88047 5.80147 11.7256 6.87593C12.76 7.26687 13.6957 7.85701 14.4685 8.68122C16.2709 10.6048 18.0543 12.547 19.7485 14.3785C17.5989 16.7142 15.3554 19.1532 13.062 21.6457C12.5745 21.124 12.1417 20.6435 11.6911 20.1841C11.47 19.9587 11.6364 19.7744 11.6959 19.5678C12.0668 18.2966 11.445 17.1188 10.2204 16.7664C9.08259 16.4402 7.90911 17.1848 7.63327 18.4086C7.29918 19.889 8.52973 21.2498 10.0456 21.0182C10.4189 20.961 10.6223 21.0606 10.8612 21.3133C11.2916 21.7677 11.7541 22.1873 12.2368 22.6517C10.9159 24.0337 9.68419 25.3223 8.45364 26.6097C8.08983 26.9906 7.72007 27.3666 7.36576 27.7576C7.28016 27.8522 7.07091 27.9244 7.21952 28.1311C6.78319 28.1311 6.34804 28.1311 5.9117 28.1311C5.78329 27.907 5.77972 27.9182 5.33268 27.7613C3.03804 26.9583 1.30457 25.5526 0.669682 22.9742C0.642336 22.8634 0.658981 22.6629 0.442595 22.7775C0.441406 21.7416 0.441406 20.7032 0.441406 19.6661Z" fill="#0090E8"/>
<path d="M25.7667 0.740503C25.7548 1.08787 26.0294 0.953403 26.1816 0.996979C30.614 2.25072 33.7373 4.94746 34.9785 9.72713C35.0748 10.0969 35.1165 10.4144 34.799 10.7431C32.1536 13.4871 29.5261 16.2498 26.8926 19.0051C26.8236 19.0773 26.744 19.1395 26.744 19.1395C24.0213 16.2884 21.3141 13.4523 18.5379 10.5439C19.0183 10.0409 19.6115 9.41587 20.2096 8.79584C20.3558 8.64395 20.5033 8.77966 20.6519 8.81203C21.8848 9.07971 23.0024 8.32398 23.239 7.06401C23.453 5.92979 22.6647 4.69223 21.5971 4.48431C20.382 4.24775 19.2965 5.03461 19.0563 6.31824C19.0135 6.54732 18.9648 6.78761 19.0623 6.9918C19.3524 7.59937 19.0694 7.97163 18.6533 8.35635C18.2253 8.75351 17.8531 9.21417 17.3906 9.71717C16.7177 9.01372 16.0935 8.36257 15.4705 7.71018C14.5728 6.77143 14.5526 6.75275 15.3564 5.69946C17.2254 3.25173 19.5985 1.63194 22.5494 0.984529C22.6885 0.954648 22.9382 1.05674 22.912 0.739258C23.8644 0.740503 24.8155 0.740503 25.7667 0.740503Z" fill="#D30000"/>
<path d="M8.88184 28.1296C8.88065 27.959 9.01738 27.8843 9.11131 27.786C12.9349 23.7795 16.7597 19.7742 20.5845 15.7689C20.6535 15.6967 20.7296 15.6307 20.7629 15.5996C22.3275 17.2393 23.8767 18.8628 25.4604 20.5237C25.1144 20.9844 24.7684 21.4363 23.9397 21.2035C23.0979 20.9669 22.186 21.6131 21.827 22.456C21.4429 23.3611 21.632 24.3659 22.3109 25.0207C22.9636 25.6495 24.0075 25.7615 24.7969 25.2872C25.5543 24.8315 26.0406 23.8355 25.7814 22.9552C25.5412 22.1385 26.1499 21.9393 26.5185 21.4898C26.6838 21.6517 26.8288 21.7862 26.9655 21.9293C28.7882 23.8355 30.6108 25.7416 32.4275 27.6527C32.5607 27.7934 32.7592 27.8918 32.7794 28.1283C24.8136 28.1296 16.8477 28.1296 8.88184 28.1296Z" fill="#00C753"/>
<path d="M155.003 21.4082C154.178 21.4082 153.351 21.4082 152.494 21.4082C152.494 21.0708 152.494 20.7459 152.494 20.4421C152.342 20.34 152.29 20.4471 152.223 20.5143C150.09 22.6894 146.812 21.9647 145.729 19.0551C145.108 17.3893 145.102 15.6873 145.717 14.0152C146.805 11.0533 150.04 10.3088 152.231 12.4975C152.285 12.5511 152.32 12.6382 152.451 12.5909C152.451 10.9948 152.451 9.38621 152.451 7.71289C153.322 7.71289 154.162 7.71289 155.003 7.71289C155.003 12.2784 155.003 16.8427 155.003 21.4082ZM152.471 16.5265C152.471 16.1741 152.431 15.8155 152.48 15.4707C152.597 14.6353 152.141 14.2095 151.518 13.8907C150.211 13.2209 148.692 13.7961 148.132 15.1644C147.459 16.8103 148.084 18.7613 149.469 19.283C150.31 19.5992 151.084 19.4062 151.842 18.9356C152.544 18.5011 152.501 17.8362 152.473 17.1477C152.464 16.9411 152.471 16.7331 152.471 16.5265Z" fill="black"/>
<path d="M27.626 20.3446C29.2084 18.6838 30.7457 17.0727 32.3781 15.3595C32.7622 15.7841 33.1783 16.2423 33.5921 16.7017C33.73 16.8561 33.6218 17.0154 33.5885 17.1686C33.2912 18.5219 33.9892 19.63 35.2803 19.8479C36.4681 20.0483 37.5381 19.1706 37.6475 17.9056C37.7616 16.5809 36.8937 15.5363 35.6335 15.5202C35.2673 15.5152 34.8024 15.7716 34.5551 15.6135C34.0807 15.3097 33.73 14.7943 33.2794 14.315C33.9868 13.5779 34.7025 12.8396 35.4076 12.0901C35.5526 11.9357 35.6715 11.978 35.8261 12.0515C38.6094 13.3588 40.6829 15.2873 41.1644 18.6439C41.7636 22.826 38.8674 27.0155 34.9189 27.6828C34.7049 27.719 34.5884 27.6592 34.4564 27.521C32.2747 25.2314 30.0906 22.9443 27.9089 20.6571C27.8114 20.5563 27.7199 20.4492 27.626 20.3446Z" fill="#FDD400"/>
<path d="M46.2363 21.4413C46.2363 16.8534 46.2363 12.2991 46.2363 7.65762C48.6487 7.81699 51.0705 7.375 53.4484 7.94398C56.5527 8.68602 58.5228 11.4077 58.4158 14.6833C58.3016 18.1993 56.2983 20.6707 53.0727 21.2932C52.5829 21.3878 52.0918 21.4389 51.5972 21.4401C49.8198 21.4451 48.0423 21.4413 46.2363 21.4413ZM49.0268 18.9077C49.7924 18.9077 50.4832 18.909 51.1728 18.9077C54.0904 18.9002 55.8287 16.8298 55.4803 13.7807C55.2782 12.014 54.1297 10.6743 52.5091 10.3444C51.3749 10.1128 50.2288 10.2535 49.0731 10.2149C49.0517 10.3481 49.0291 10.4253 49.0291 10.5038C49.0268 13.2802 49.0268 16.0578 49.0268 18.9077Z" fill="#12012B"/>
<path d="M111.941 17.0556C112.752 17.4689 113.528 17.8648 114.305 18.2607C113.032 20.9338 110.154 22.2112 107.058 21.509C103.892 20.7919 101.872 18.1674 101.77 14.6377C101.677 11.4069 103.743 8.50095 106.771 7.60453C109.939 6.66702 112.771 7.81369 114.328 10.6972C113.532 11.1018 112.738 11.5052 111.949 11.9061C110.767 10.1581 109.325 9.56421 107.586 10.0834C105.94 10.5752 104.785 12.1887 104.685 14.1322C104.56 16.5862 105.83 18.4861 107.915 18.9629C109.504 19.3252 110.921 18.6654 111.941 17.0556Z" fill="#12012B"/>
<path d="M75.3682 20.256C75.3682 21.9281 75.3682 23.5553 75.3682 25.2237C74.5348 25.2237 73.7334 25.2237 72.925 25.2237C72.8096 24.7194 72.7573 13.9586 72.8667 11.4997C73.6799 11.4997 74.4967 11.4997 75.3599 11.4997C75.3599 11.8508 75.3599 12.1907 75.3599 12.5368C75.4408 12.5219 75.4859 12.5293 75.5073 12.5082C78.0077 10.0829 81.4033 11.0664 82.2997 14.4952C82.6623 15.8834 82.6398 17.2903 82.2177 18.6611C81.1132 22.2518 77.1076 22.4622 75.5466 20.3693C75.5157 20.3282 75.4574 20.3108 75.3682 20.256ZM75.3552 16.4014C75.3552 16.8981 75.3623 17.3949 75.3516 17.8917C75.3468 18.1108 75.392 18.2913 75.5478 18.4482C76.2445 19.1504 77.0529 19.5052 78.0255 19.2986C78.9481 19.1031 79.4962 18.4706 79.778 17.558C80.017 16.7861 80.0158 16.0129 79.7602 15.2435C79.3666 14.0557 78.3513 13.4046 77.1647 13.5777C75.8914 13.7632 75.354 14.3981 75.354 15.7166C75.3552 15.9457 75.3552 16.1735 75.3552 16.4014Z" fill="#12012B"/>
<path d="M94.8733 21.6793C91.9509 21.6694 89.8572 19.4744 89.8584 16.4228C89.8608 13.4148 92.0651 11.1501 94.9732 11.1701C97.8468 11.19 99.9311 13.3962 99.9346 16.4228C99.937 19.5242 97.8528 21.6893 94.8733 21.6793ZM92.4586 16.4054C92.4491 17.1723 92.6239 17.8833 93.0852 18.4896C93.9852 19.6711 95.8221 19.6599 96.7162 18.4784C97.5009 17.4413 97.5484 15.6534 96.8172 14.5752C96.2228 13.6975 95.1527 13.3426 94.1291 13.6838C93.1054 14.0249 92.4645 15.0682 92.4586 16.4054Z" fill="#12012B"/>
<path d="M126.39 21.6781C123.472 21.6669 121.37 19.462 121.377 16.4179C121.383 13.4124 123.593 11.1477 126.499 11.1701C129.373 11.1925 131.452 13.3987 131.452 16.4266C131.453 19.528 129.369 21.6893 126.39 21.6781ZM124.062 16.5212C124.068 16.6333 124.064 16.8437 124.095 17.0466C124.255 18.0999 124.719 18.9254 125.745 19.2603C126.712 19.5753 127.735 19.2416 128.318 18.4697C129.104 17.4264 129.145 15.646 128.404 14.5653C128.106 14.1333 127.72 13.8307 127.225 13.6751C125.517 13.1335 124.066 14.3922 124.062 16.5212Z" fill="#12012B"/>
<path d="M133.907 11.4863C134.767 11.4863 135.589 11.4863 136.47 11.4863C136.47 13.202 136.47 14.8952 136.47 16.5885C136.47 16.9196 136.462 17.2521 136.473 17.5832C136.523 18.8644 137.243 19.4956 138.466 19.3537C139.058 19.2852 139.553 19.015 140.007 18.6253C140.286 18.385 140.405 18.1186 140.401 17.7239C140.378 15.8589 140.391 13.9926 140.391 12.1263C140.391 11.9246 140.391 11.7229 140.391 11.4913C141.245 11.4913 142.046 11.4913 142.877 11.4913C142.877 14.7981 142.877 18.085 142.877 21.4129C142.072 21.4129 141.272 21.4129 140.402 21.4129C140.402 21.0718 140.402 20.7182 140.402 20.2426C139.485 21.1664 138.483 21.5922 137.362 21.7479C135.412 22.018 134.003 20.9573 133.928 18.9565C133.836 16.4777 133.907 13.9926 133.907 11.4863Z" fill="#12012B"/>
<path d="M69.754 21.4216C68.9538 21.4216 68.1501 21.4216 67.3107 21.4216C67.2953 21.0556 67.2798 20.717 67.2608 20.2874C66.4274 21.1154 65.4988 21.5573 64.4395 21.7279C62.2958 22.0728 60.8691 20.8377 60.8536 18.5693C60.8382 16.2286 60.8501 13.8867 60.8501 11.5012C61.6728 11.5012 62.473 11.5012 63.3005 11.5012C63.4336 11.6556 63.3599 11.8723 63.3599 12.0677C63.367 13.8095 63.3611 15.5513 63.3647 17.2931C63.367 18.4522 63.7011 19.0586 64.443 19.2777C65.3942 19.5591 66.7543 19.0723 67.2121 18.2941C67.3274 18.0987 67.281 17.892 67.281 17.6915C67.2858 15.6422 67.2846 13.5916 67.2846 11.5C68.1204 11.5 68.9229 11.5 69.729 11.5C69.8277 11.9283 69.8563 20.6672 69.754 21.4216Z" fill="#12012B"/>
<path d="M87.4451 21.4339C86.6164 21.4339 85.8282 21.4339 85.0078 21.4339C85.0078 16.8671 85.0078 12.3165 85.0078 7.72363C85.8008 7.72363 86.601 7.72363 87.4451 7.72363C87.4451 12.258 87.4451 16.8223 87.4451 21.4339Z" fill="#12012B"/>
<path d="M118.963 21.4328C118.136 21.4328 117.348 21.4328 116.525 21.4328C116.525 16.8673 116.525 12.3205 116.525 7.72754C117.318 7.72754 118.117 7.72754 118.963 7.72754C118.963 12.2607 118.963 16.8225 118.963 21.4328Z" fill="#12012B"/>
</g>
</g>
<defs>
<clipPath id="clip0_3035_223019">
<rect width="154.562" height="27.3907" fill="white" transform="translate(0.441406 0.739258)"/>
</clipPath>
<clipPath id="clip1_3035_223019">
<rect width="154.562" height="27.3907" fill="white" transform="translate(0.441406 0.739258)"/>
</clipPath>
</defs>
</svg>
