<svg width="93" height="35" viewBox="0 0 93 35" fill="none" xmlns="http://www.w3.org/2000/svg">
<g clip-path="url(#clip0_3035_223012)">
<g clip-path="url(#clip1_3035_223012)">
<path d="M54.0142 24.261C53.0622 24.9121 51.9343 25.2377 50.7912 25.1984C50.0762 25.2063 49.3689 25.0886 48.6922 24.8533C48.004 24.6023 47.3617 24.2336 46.792 23.7629L48.6425 20.6095C48.9101 20.8527 49.216 21.0488 49.541 21.1978C49.8277 21.3194 50.1336 21.3782 50.4394 21.3782C51.1391 21.3979 51.7814 20.9821 52.0643 20.3271L52.3893 19.6878L46.792 6.15234H51.3647L54.5877 15.1773L57.4628 6.15234H61.8864L56.0903 21.3743C55.685 22.5196 54.9624 23.5237 54.0142 24.261Z" fill="#12012B"/>
<path d="M73.3371 7.28671C74.3694 8.16528 74.8932 9.40076 74.9123 10.9892V20.0142H70.5384V18.4492C69.64 19.6298 68.2827 20.2181 66.4666 20.2181C65.0329 20.2181 63.905 19.822 63.0792 19.0258C62.2457 18.21 61.7945 17.0647 61.8404 15.8841C61.7831 14.6996 62.2801 13.5544 63.1786 12.8091C64.0694 12.0757 65.3502 11.6992 67.0133 11.6795H70.5346V11.5266C70.569 10.9343 70.3205 10.3617 69.8732 9.98909C69.315 9.59295 68.6382 9.40468 67.9615 9.45175C67.3154 9.46352 66.6731 9.55765 66.0499 9.73415C65.312 9.93418 64.597 10.2087 63.9126 10.5539L62.6892 7.47889C63.7062 6.99647 64.7652 6.61601 65.8511 6.33754C66.8795 6.08652 67.9309 5.96101 68.9862 5.96493C70.8558 5.96493 72.3048 6.40814 73.3371 7.28671ZM69.5903 16.6176C70.0567 16.3273 70.397 15.8645 70.5384 15.3233V14.1191H67.8889C66.6387 14.1191 66.0155 14.5976 66.0155 15.5547C65.9963 15.99 66.176 16.4136 66.501 16.696C66.8834 16.998 67.3574 17.1471 67.8392 17.1196C68.4586 17.1314 69.0665 16.9549 69.5903 16.6176Z" fill="#12012B"/>
<path d="M85.9461 19.3007C85.407 19.6066 84.8259 19.838 84.2218 19.9792C83.5756 20.14 82.9142 20.2224 82.2489 20.2224C81.0599 20.2773 79.8976 19.8537 79.0106 19.0418C78.158 18.1907 77.7069 17.0023 77.7719 15.7864V9.84039H75.8984V6.81639H77.7719V2.97266H82.1954V6.81639H85.6937V9.84039H82.1954V15.0687C82.1954 16.0414 82.5854 16.5316 83.3692 16.5316C83.9694 16.5003 84.5544 16.3434 85.0935 16.0688L85.9461 19.3007Z" fill="#12012B"/>
<path d="M87.9814 6.14746H92.405V20.0163H87.9814V6.14746Z" fill="#12012B"/>
<path d="M19.3599 10.3898C19.7422 9.5112 20.2583 8.70323 20.8892 7.99332C22.1547 6.62448 23.9249 5.87142 25.7639 5.91064C29.7019 5.91064 32.9632 9.00132 32.9632 13.0412C32.9632 17.081 29.7707 20.356 25.8327 20.356C25.1483 20.3599 24.4678 20.2658 23.8102 20.0854C23.7108 20.0579 20.2622 21.3366 17.3679 19.4814C16.4656 18.8852 15.9456 17.8341 16.0068 16.7359C16.133 15.7671 16.5115 14.8493 17.1003 14.0845C17.1003 14.0845 15.6895 16.6339 18.0943 18.4381C19.314 19.3519 21.5391 19.1009 21.7303 19.0813C25.5307 18.7126 28.2949 16.2103 29.7172 13.9158C30.2027 13.1549 30.5851 12.3312 30.8565 11.4644L31.518 11.6606L30.3786 8.5385L27.9699 10.8408L28.662 10.9624C27.5456 14.7826 24.9916 16.6417 22.277 17.6105C21.6806 17.7752 21.065 17.8576 20.4495 17.8498C18.794 17.8498 17.6929 16.8535 17.4826 15.9436C17.2226 14.8179 17.5285 13.6295 18.297 12.7823C18.297 12.7823 17.647 14.9944 19.3675 16.1397C19.7842 16.4182 20.7554 16.4888 21.7571 16.2142C23.4814 15.7043 24.9725 14.5904 25.9703 13.0608L26.4483 13.3157L25.9512 10.6447L23.6917 12.1391C23.6917 12.1391 23.7911 12.1861 24.2155 12.4175C23.7375 13.504 22.8658 14.3551 21.7838 14.7905C21.1912 15.0885 20.5298 15.1984 19.876 15.1042C19.2987 14.9669 18.9125 14.7081 18.8284 13.4961C18.8437 12.4371 19.0196 11.3899 19.3599 10.3898Z" fill="#12012B"/>
<path d="M87.3994 1.3381L89.1887 2.85206L89.7355 5.13085L92.9509 0.804688L87.3994 1.3381Z" fill="#12012B"/>
<path d="M44.9099 7.39958C43.977 6.42295 42.6809 5.9013 41.3504 5.96406C40.4443 5.94445 39.5458 6.15625 38.7391 6.57984C37.9706 7.00344 37.3245 7.63099 36.8772 8.39973V6.14448H32.4307V7.45449C33.7306 8.98414 34.4455 10.9413 34.4455 12.9691C34.457 15.0792 33.7459 17.1305 32.4307 18.7543V20.0094H36.8772V12.6828C36.9269 11.9689 37.2251 11.2943 37.7145 10.7844C38.2 10.302 38.85 10.0314 39.5267 10.0392C40.1537 10.0078 40.7616 10.2549 41.2013 10.7177C41.6372 11.2276 41.8628 11.8983 41.8245 12.5769V20.0133H46.2481V11.2708C46.2481 9.64699 45.8008 8.35659 44.9099 7.39958Z" fill="#12012B"/>
<path d="M17.5826 11.3959C17.6514 11.0429 17.7393 10.6938 17.8502 10.3526C17.7929 8.92098 17.3952 7.52468 16.6917 6.28528C15.9118 4.93212 14.7724 3.83391 13.4075 3.12008C11.9011 2.34349 10.2304 1.95519 8.54428 1.99049H0.99707V19.9619H8.36841C10.0851 19.9972 11.7864 19.6089 13.3272 18.8323C13.7937 18.5892 14.2372 18.3028 14.6539 17.9773C14.1263 15.6671 15.4262 13.0471 17.5826 11.3959ZM12.6161 13.706C12.2644 14.4591 11.71 15.0906 11.018 15.5259C10.3106 15.9613 9.49628 16.1809 8.67045 16.1652H5.57357V5.81069H8.44869C9.30894 5.795 10.1539 6.02249 10.8994 6.4657C11.6182 6.90498 12.1994 7.53645 12.5855 8.29735C13.0061 9.1367 13.2164 10.0702 13.1972 11.0154C13.2087 11.945 13.0099 12.8706 12.6161 13.706Z" fill="#12012B"/>
<path d="M1.03906 30.259C1.03906 30.259 6.65168 30.7885 16.5617 31.1297C23.8336 31.3768 35.8617 31.5298 42.9234 31.4749C53.9995 31.3847 64.0166 30.8042 70.4932 30.3884C84.9453 29.4667 92.439 27.5605 92.439 27.5605C92.439 27.5605 84.4751 30.8983 59.3215 32.8437C47.9204 33.7262 33.3498 34.1851 21.6276 34.04C9.90531 33.8949 1.03906 33.1457 1.03906 33.1457V30.259Z" fill="#12012B"/>
</g>
</g>
<defs>
<clipPath id="clip0_3035_223012">
<rect width="91.9543" height="33.2601" fill="white" transform="translate(0.99707 0.803711)"/>
</clipPath>
<clipPath id="clip1_3035_223012">
<rect width="91.9543" height="33.2601" fill="white" transform="translate(0.99707 0.803711)"/>
</clipPath>
</defs>
</svg>
