<svg width="115" height="25" viewBox="0 0 115 25" fill="none" xmlns="http://www.w3.org/2000/svg">
<g clip-path="url(#clip0_3035_223016)">
<g clip-path="url(#clip1_3035_223016)">
<path fill-rule="evenodd" clip-rule="evenodd" d="M40.9955 5.3916L36.7598 16.342L32.5013 5.3916H29.7539L35.6323 19.7402H37.8073L43.6856 5.3916H40.9955Z" fill="#222225"/>
<path fill-rule="evenodd" clip-rule="evenodd" d="M45.8691 19.6363H48.3304V5.3916H45.8691V19.6363Z" fill="#222225"/>
<path fill-rule="evenodd" clip-rule="evenodd" d="M61.7533 5.3916L57.4604 12.1303L53.1561 5.3916H50.5117V19.6363H52.973V9.46483L57.3975 16.1401H57.4776L61.9364 9.42444V19.6363H64.4034V5.3916H61.7533Z" fill="#222225"/>
<path fill-rule="evenodd" clip-rule="evenodd" d="M75.1097 5.3916H72.8087L66.5869 19.7344H69.134L73.9191 8.38594L78.6985 19.7344H81.3257L75.1097 5.3916Z" fill="#222225"/>
<path fill-rule="evenodd" clip-rule="evenodd" d="M92.0268 5.3916H89.7258L83.5098 19.7344H86.0511L90.8362 8.38594L95.6213 19.7344H98.2428L92.0268 5.3916Z" fill="#222225"/>
<path fill-rule="evenodd" clip-rule="evenodd" d="M110.274 5.3916V15.2343L102.718 5.3916H100.423V19.6306H102.884V9.49944L110.663 19.6306H112.735V5.3916H110.274Z" fill="#222225"/>
<path fill-rule="evenodd" clip-rule="evenodd" d="M9.27269 0.694336L21.4587 3.08288L12.8615 18.095L6.33065 6.69455L6.32493 6.68878L0.624023 2.79441L12.8615 24.1644L26.3067 0.694336H9.27269Z" fill="#ED2D2E"/>
<path fill-rule="evenodd" clip-rule="evenodd" d="M16.9648 4.75466L12.8609 11.9145L9.26633 5.63161L4.38965 2.29688L16.9648 4.75466Z" fill="#ED2D2E"/>
</g>
</g>
<defs>
<clipPath id="clip0_3035_223016">
<rect width="113.476" height="23.4777" fill="white" transform="translate(0.624023 0.695312)"/>
</clipPath>
<clipPath id="clip1_3035_223016">
<rect width="113.476" height="23.4777" fill="white" transform="translate(0.624023 0.695312)"/>
</clipPath>
</defs>
</svg>
