<svg width="48" height="51" viewBox="0 0 48 51" fill="none" xmlns="http://www.w3.org/2000/svg">
<g clip-path="url(#clip0_3035_223013)">
<g clip-path="url(#clip1_3035_223013)">
<path d="M47.8926 25.442C47.8926 28.7167 47.8575 31.994 47.9061 35.2686C47.9385 37.5024 46.9935 39.0807 44.9874 40.1845C39.1285 43.4146 33.2803 46.6656 27.4699 49.9743C25.3882 51.1594 23.4659 51.1646 21.3896 49.9822C15.6143 46.6971 9.81744 43.4486 3.99088 40.2527C1.8849 39.0991 0.934501 37.4814 0.953401 35.1401C1.0074 28.6328 0.996601 22.1228 0.958801 15.6155C0.945301 13.3843 1.8606 11.8165 3.87478 10.7049C9.77155 7.46168 15.6413 4.16082 21.503 0.844227C23.4848 -0.277907 25.3693 -0.283151 27.3538 0.838984C33.2533 4.17655 39.1717 7.48265 45.1008 10.7704C47.0097 11.8296 47.9142 13.3634 47.898 15.4844C47.8737 18.8036 47.8926 22.1228 47.8926 25.442ZM26.29 17.9594C26.506 18.059 26.722 18.1613 26.938 18.2609C22.2995 26.9207 17.6582 35.5832 12.9818 44.3112C16.1084 46.0468 19.1216 47.7772 22.1942 49.4054C23.8223 50.268 25.1101 49.9691 26.4547 48.6687C29.5354 45.6877 31.0555 42.0774 31.1527 37.8642C31.2337 34.3247 30.6289 30.8063 30.8665 27.2616C31.1176 23.5255 32.473 20.3951 35.8615 18.3212C36.1207 18.1613 36.3448 17.9463 36.7552 17.6238C34.5763 17.1991 33.5584 15.584 32.3245 14.2207C31.7602 13.5993 31.2364 12.9386 30.6478 12.3382C28.153 9.80557 24.2759 10.0048 22.0862 12.7708C18.5789 17.2017 15.0716 21.6326 11.5724 26.0687C8.48365 29.9804 5.40567 33.8974 2.17919 37.9979C5.39487 40.347 8.96155 41.9306 12.323 43.9494C17.0399 35.169 21.665 26.5642 26.29 17.9594Z" fill="#1F4C6E"/>
<path d="M27.624 14.7656C28.2072 14.8154 28.5447 15.0698 28.5744 15.5758C28.6041 16.0608 28.3611 16.4436 27.8373 16.4934C27.2487 16.5511 26.9166 16.2129 26.8815 15.6492C26.8518 15.1169 27.246 14.9098 27.624 14.7656Z" fill="#1F4C6E"/>
</g>
</g>
<defs>
<clipPath id="clip0_3035_223013">
<rect width="46.9554" height="50.8684" fill="white" transform="translate(0.951172)"/>
</clipPath>
<clipPath id="clip1_3035_223013">
<rect width="46.9554" height="50.8684" fill="white" transform="translate(0.951172)"/>
</clipPath>
</defs>
</svg>
