<svg width="75" height="32" viewBox="0 0 75 32" fill="none" xmlns="http://www.w3.org/2000/svg">
<g id="Frame" clip-path="url(#clip0_497_7122)">
<g id="Group">
<path id="Vector" d="M74.0811 20.5015C73.5201 23.7491 70.9528 26.0056 67.5872 26.1954C66.0986 26.2797 64.6531 26.2376 63.2507 25.6893C60.4029 24.5927 58.6554 21.8722 59.0006 19.0464C59.3674 16.0097 61.7621 13.7321 64.9551 13.2682C66.8752 12.994 68.7306 13.2682 70.6076 13.5001C70.9096 11.3491 69.9819 9.93619 67.8892 9.53551C65.2356 9.02939 62.5819 9.17701 60.0793 10.2525C56.5627 11.7498 54.8799 14.5335 54.6857 18.2029C54.5779 20.2695 54.6642 22.3573 54.6642 24.4239C54.6642 25.6682 54.1248 26.1954 52.9382 26.1954C51.7516 26.1954 51.2123 25.6682 51.2123 24.4239C51.1907 22.2729 51.1907 20.143 51.2123 17.992C51.2554 12.3614 47.1994 8.79742 41.3959 9.38789C41.2018 9.61987 41.2881 9.9151 41.2881 10.1893C41.2881 13.6056 41.2665 17.0008 41.2881 20.4171C41.2881 22.2097 41.8921 22.8001 43.7475 22.8423C44.2869 22.8634 44.8263 22.8001 45.3656 22.758C46.5522 22.6736 47.1779 23.1165 47.3505 24.1709C47.5015 25.1831 46.9837 25.8369 45.8618 26.0478C44.7184 26.2586 43.5534 26.3008 42.4315 26.111C39.6053 25.6471 37.9009 23.6648 37.8577 20.8178C37.8146 17.4437 37.8362 14.0695 37.8362 10.6954C37.8362 10.2736 37.8362 9.87293 37.8362 9.40898C36.4554 9.07157 34.2764 9.99946 34.4274 7.48993C34.5569 5.29674 36.4986 6.11918 37.8577 5.84504C37.8577 4.85388 37.9225 3.88381 37.8362 2.91374C37.7499 1.85932 38.1166 1.18449 39.1738 0.868164C39.4542 0.868164 39.7563 0.868164 40.0367 0.868164C41.0507 1.22667 41.3959 1.94367 41.3312 2.97701C41.2665 3.94708 41.3096 4.91714 41.3096 5.92939C43.7691 5.84504 46.0128 6.11918 48.1271 7.13143C50.2846 8.14367 51.9026 9.7464 53.2187 11.7076C54.0169 10.6532 54.772 9.7464 55.7213 8.96612C58.7417 6.49878 62.3446 5.95048 66.0986 5.92939C70.3919 5.92939 72.9592 7.86952 74.1674 11.9185C74.1889 11.9607 74.2752 12.0029 74.3184 12.0239C74.3184 12.0872 74.3184 12.1716 74.3184 12.2348C74.0595 12.3403 74.1026 12.5722 74.1026 12.762C74.0595 15.3559 74.0595 17.9287 74.0811 20.5015ZM70.7155 18.7512C70.7155 18.3083 70.7155 17.9287 70.7155 17.5491C70.7155 17.2539 70.6939 16.9797 70.3056 16.9165C68.4286 16.6001 66.5516 16.1784 64.6747 16.7899C63.5096 17.1695 62.6682 17.9287 62.4525 19.1307C62.2583 20.2695 62.5604 21.345 63.5744 22.0199C65.2572 23.1586 67.0694 23.1586 68.9032 22.3995C70.5645 21.7035 70.8018 20.2695 70.7155 18.7512Z" fill="#E92A32"/>
<path id="Vector_2" d="M0.253662 7.19478C1.65599 5.54989 2.49739 5.50771 4.0939 7.04716C4.97844 7.8907 5.6041 8.92404 6.14346 9.99955C7.73996 13.0574 9.31489 16.1363 10.8898 19.2152C11.3429 19.1308 11.2782 18.7512 11.386 18.4982C12.0764 16.9166 12.7021 15.3138 13.3709 13.7322C15.593 8.54444 19.5411 5.90839 25.3446 5.92948C27.1784 5.92948 28.926 6.20363 30.5009 7.15261C32.6583 8.439 33.8233 10.3159 33.8665 12.8043C33.9096 15.0608 33.9096 17.2961 33.8881 19.5526C33.8233 23.3063 31.105 25.9846 27.2432 26.2166C25.1505 26.3431 23.144 26.0689 21.3965 24.8458C19.2175 23.3274 18.2467 20.6492 18.8939 18.1186C19.5411 15.5669 21.8496 13.69 24.6758 13.2683C26.5959 12.9941 28.4513 13.2683 30.3067 13.5213C30.8892 11.5812 29.4438 9.68322 26.8117 9.36689C25.3231 9.1771 23.7913 9.28254 22.3026 9.64104C20.1884 10.1261 18.6782 11.4125 17.5563 13.1839C16.3265 15.1451 15.593 17.3172 14.7516 19.4261C13.7592 21.8723 12.7021 24.2764 11.3213 26.554C9.8111 29.0213 7.97728 31.0669 5.00002 31.8683C4.41751 31.8683 3.85658 31.8683 3.27407 31.8683C3.20935 31.7839 3.1662 31.6995 3.10148 31.6574C2.36795 31.1091 2.06591 30.3921 2.28165 29.5274C2.49739 28.6628 3.23092 28.4941 4.02917 28.4308C4.71955 28.3676 5.36678 28.1356 5.92771 27.756C7.3732 26.7438 8.23617 25.2887 9.05599 23.8125C9.25016 23.4751 9.05599 23.222 8.90497 22.9268C8.042 21.2397 7.2006 19.5315 6.29448 17.8655C4.50381 14.4492 3.23092 10.7376 0.253662 8.03832C0.253662 7.76417 0.253662 7.46893 0.253662 7.19478ZM30.393 17.0009C28.4729 16.6424 26.6175 16.2206 24.719 16.7057C23.4245 17.0431 22.4537 17.7601 22.1948 19.1308C21.979 20.3961 22.3674 21.4295 23.4677 22.1465C24.9131 23.0744 26.5096 23.0533 28.1277 22.6104C29.3575 22.2519 30.2204 21.4506 30.3714 20.1853C30.5009 19.1519 30.393 18.0975 30.393 17.0009Z" fill="#E92A32"/>
</g>
</g>
<defs>
<clipPath id="clip0_497_7122">
<rect width="74" height="31" fill="white" transform="translate(0.253662 0.868164)"/>
</clipPath>
</defs>
</svg>
